<svg id="Document" xmlns="http://www.w3.org/2000/svg" width="24" height="24" viewBox="0 0 24 24">
  <g id="Document-2" data-name="Document" transform="translate(4 2)">
    <path id="Path" d="M7.5.75A.75.75,0,0,0,6.75,0h-6a.75.75,0,0,0,0,1.5h6A.75.75,0,0,0,7.5.75Z" transform="translate(4.25 10.25)"/>
    <path id="Path-2" data-name="Path" d="M7.5.75A.75.75,0,0,0,6.75,0h-6a.75.75,0,0,0,0,1.5h6A.75.75,0,0,0,7.5.75Z" transform="translate(4.25 14.25)"/>
    <path id="Shape" d="M12.75,19.5h-10A2.754,2.754,0,0,1,0,16.75v-14A2.754,2.754,0,0,1,2.75,0h8a1.758,1.758,0,0,1,1.4.695l3,3.968A1.758,1.758,0,0,1,15.5,5.718V16.75A2.753,2.753,0,0,1,12.75,19.5Zm-10-18A1.252,1.252,0,0,0,1.5,2.75v14A1.252,1.252,0,0,0,2.75,18h10A1.252,1.252,0,0,0,14,16.75V6.647H10.75A.751.751,0,0,1,10,5.9V1.5Z" transform="translate(0.25 0.25)"/>
  </g>
</svg>
