<svg id="Stack" xmlns="http://www.w3.org/2000/svg" width="24" height="24" viewBox="0 0 24 24">
  <g id="Stack-2" data-name="Stack" transform="translate(2 3)">
    <path id="Shape" d="M8.631,11.821a2.466,2.466,0,0,1-1.137-.265A40.785,40.785,0,0,1,.552,7.018,1.362,1.362,0,0,1,.541,4.837,39.332,39.332,0,0,1,7.547.259,2.558,2.558,0,0,1,9.8.265,40.759,40.759,0,0,1,16.747,4.8a1.361,1.361,0,0,1,.01,2.182,39.356,39.356,0,0,1-7.006,4.577A2.449,2.449,0,0,1,8.631,11.821ZM8.667,1.5a.962.962,0,0,0-.432.092A37.949,37.949,0,0,0,1.581,5.923a39.311,39.311,0,0,0,6.608,4.3.977.977,0,0,0,.443.1.958.958,0,0,0,.431-.092A37.883,37.883,0,0,0,15.717,5.9,39.337,39.337,0,0,0,9.11,1.6.977.977,0,0,0,8.667,1.5Z" transform="translate(1.351 0.095)"/>
    <path id="Path" d="M18.441.353A.75.75,0,0,1,18.2,1.386L12.1,5.2a5.448,5.448,0,0,1-2.851.757A5.449,5.449,0,0,1,6.393,5.2L.353,1.43A.75.75,0,0,1,1.147.157l6.04,3.77a3.958,3.958,0,0,0,2.057.529A3.957,3.957,0,0,0,11.3,3.927L17.408.114A.75.75,0,0,1,18.441.353Z" transform="translate(0.756 9.345)"/>
    <path id="Path-2" data-name="Path" d="M18.441.353A.75.75,0,0,1,18.2,1.386l-5.289,3.3a7.014,7.014,0,0,1-3.669.971,7.016,7.016,0,0,1-3.67-.971L.353,1.43A.75.75,0,1,1,1.147.157l5.222,3.26a5.525,5.525,0,0,0,2.875.743,5.524,5.524,0,0,0,2.875-.744l5.289-3.3A.75.75,0,0,1,18.441.353Z" transform="translate(0.756 13.1)"/>
  </g>
</svg>
