<svg xmlns="http://www.w3.org/2000/svg" width="10.346" height="19.37" viewBox="0 0 10.346 19.37">
  <g id="Lightning" transform="translate(0 0)">
    <g id="Lightning-2" data-name="Lightning">
      <path id="Shape" d="M3.6,19.371a.75.75,0,0,1-.75-.75V11.469H1.025a.755.755,0,0,1-.747-.684L.156,9.4a39.784,39.784,0,0,1,0-7.028L.278.994A.751.751,0,0,1,.941.315l1.6-.182a20.766,20.766,0,0,1,4.693,0l1.6.182a.749.749,0,0,1,.619,1l-2.2,6.016H9.6a.75.75,0,0,1,.7,1.013l-.19.508A35.7,35.7,0,0,1,4.574,18.6l-.391.49A.745.745,0,0,1,3.6,19.371ZM4.882,1.5a19.317,19.317,0,0,0-2.177.124l-.987.113-.068.772a38.311,38.311,0,0,0,0,6.762l.062.7H3.6a.751.751,0,0,1,.751.75v5.705A34.317,34.317,0,0,0,8.51,8.834H6.168a.75.75,0,0,1-.7-1.008L7.708,1.7,7.06,1.624A19.334,19.334,0,0,0,4.882,1.5Z" fill="#788bff"/>
    </g>
  </g>
</svg>
