<svg xmlns="http://www.w3.org/2000/svg" width="17.5" height="14.5" viewBox="0 0 17.5 14.5">
  <g id="Heart" transform="translate(-0.25 -0.25)">
    <path id="Shape" d="M8.75,14.5a3.335,3.335,0,0,1-1.45-.443,13.652,13.652,0,0,1-1.534-.941A17.886,17.886,0,0,1,1.882,9.632,7.777,7.777,0,0,1,0,4.78,4.981,4.981,0,0,1,5.15,0a5.234,5.234,0,0,1,3.6,1.542A5.235,5.235,0,0,1,12.35,0,4.981,4.981,0,0,1,17.5,4.78a7.776,7.776,0,0,1-1.881,4.852,17.888,17.888,0,0,1-3.885,3.484,13.47,13.47,0,0,1-1.533.941A3.3,3.3,0,0,1,8.75,14.5Zm-3.6-13A3.483,3.483,0,0,0,1.5,4.78,6.326,6.326,0,0,0,3.056,8.7,16.634,16.634,0,0,0,6.62,11.883a12.34,12.34,0,0,0,1.36.838A2.2,2.2,0,0,0,8.75,13a2.193,2.193,0,0,0,.769-.279,12.34,12.34,0,0,0,1.36-.838A16.64,16.64,0,0,0,14.444,8.7,6.326,6.326,0,0,0,16,4.78,3.484,3.484,0,0,0,12.35,1.5,3.956,3.956,0,0,0,9.345,3.119a.749.749,0,0,1-1.189,0A3.96,3.96,0,0,0,5.15,1.5Z" transform="translate(0.25 0.25)"/>
  </g>
</svg>
