<svg width="78" height="78" viewBox="0 0 78 78" fill="none" xmlns="http://www.w3.org/2000/svg">
<rect x="0.0966797" y="0.419434" width="77.4194" height="77.4194" rx="38.7097" fill="white"/>
<mask id="mask0_1_385" style="mask-type:alpha" maskUnits="userSpaceOnUse" x="12" y="12" width="54" height="54">
<path fill-rule="evenodd" clip-rule="evenodd" d="M12 39C12 53.9117 24.0883 66 39 66V66C53.9116 66 66 53.9117 66 39V39C66 24.0884 53.9116 12 39 12V12C24.0883 12 12 24.0884 12 39" fill="white"/>
</mask>
<g mask="url(#mask0_1_385)">
<path fill-rule="evenodd" clip-rule="evenodd" d="M12 39C12 53.9117 24.0883 66 39 66V66C53.9116 66 66 53.9117 66 39V39C66 24.0884 53.9116 12 39 12V12C24.0883 12 12 24.0884 12 39" fill="url(#paint0_linear_1_385)"/>
</g>
<mask id="mask1_1_385" style="mask-type:alpha" maskUnits="userSpaceOnUse" x="12" y="23" width="32" height="43">
<path fill-rule="evenodd" clip-rule="evenodd" d="M17.1808 23.0002C13.9218 27.4666 12 32.9513 12 38.8808V38.8808C12 53.3681 23.4644 65.2051 37.9072 66V66C41.7132 61.4576 44 55.6378 44 49.292V49.292C44 34.7714 32.0322 23 17.269 23V23L17.1808 23.0002Z" fill="white"/>
</mask>
<g mask="url(#mask1_1_385)">
<path fill-rule="evenodd" clip-rule="evenodd" d="M17.1808 23.0002C13.9218 27.4666 12 32.9513 12 38.8808V38.8808C12 53.3681 23.4644 65.2051 37.9072 66V66C41.7132 61.4576 44 55.6378 44 49.292V49.292C44 34.7714 32.0322 23 17.269 23V23L17.1808 23.0002Z" fill="url(#paint1_linear_1_385)"/>
</g>
<mask id="mask2_1_385" style="mask-type:alpha" maskUnits="userSpaceOnUse" x="18" y="12" width="32" height="27">
<path fill-rule="evenodd" clip-rule="evenodd" d="M18.0104 22.2695C18.0036 22.4641 18 22.6595 18 22.8559V22.8559C18 31.7719 25.1634 39 34 39V39C42.8365 39 50 31.7719 50 22.8559V22.8559C50 19.2069 48.7997 15.8414 46.7764 13.138V13.138C44.3317 12.399 41.7414 12 39.0583 12V12C30.529 12 22.9292 16.0132 18.0104 22.2695" fill="white"/>
</mask>
<g mask="url(#mask2_1_385)">
<path fill-rule="evenodd" clip-rule="evenodd" d="M18.0104 22.2695C18.0036 22.4641 18 22.6595 18 22.8559V22.8559C18 31.7719 25.1634 39 34 39V39C42.8365 39 50 31.7719 50 22.8559V22.8559C50 19.2069 48.7997 15.8414 46.7764 13.138V13.138C44.3317 12.399 41.7414 12 39.0583 12V12C30.529 12 22.9292 16.0132 18.0104 22.2695" fill="url(#paint2_linear_1_385)"/>
</g>
<mask id="mask3_1_385" style="mask-type:alpha" maskUnits="userSpaceOnUse" x="44" y="13" width="22" height="31">
<path fill-rule="evenodd" clip-rule="evenodd" d="M44 23.2662C44 34.7171 53.0145 44 64.134 44V44C64.615 44 65.092 43.9823 65.5646 43.9476V43.9476C65.8497 42.3539 66 40.7117 66 39.033V39.033C66 26.5731 57.7906 16.0894 46.6387 13V13C44.9599 16.0268 44 19.5309 44 23.2662" fill="white"/>
</mask>
<g mask="url(#mask3_1_385)">
<path fill-rule="evenodd" clip-rule="evenodd" d="M44 23.2662C44 34.7171 53.0145 44 64.134 44V44C64.615 44 65.092 43.9823 65.5646 43.9476V43.9476C65.8497 42.3539 66 40.7117 66 39.033V39.033C66 26.5731 57.7906 16.0894 46.6387 13V13C44.9599 16.0268 44 19.5309 44 23.2662" fill="url(#paint3_linear_1_385)"/>
</g>
<mask id="mask4_1_385" style="mask-type:alpha" maskUnits="userSpaceOnUse" x="15" y="16" width="13" height="14">
<path fill-rule="evenodd" clip-rule="evenodd" d="M15 27.8771C16.3807 29.1946 18.2274 30 20.2567 30V30C24.5332 30 28 26.4244 28 22.0137V22.0137C28 19.6151 26.9744 17.4638 25.3512 16V16C20.8481 18.7886 17.2219 22.9286 15 27.8771" fill="white"/>
</mask>
<g mask="url(#mask4_1_385)">
<path fill-rule="evenodd" clip-rule="evenodd" d="M15 27.8771C16.3807 29.1946 18.2274 30 20.2567 30V30C24.5332 30 28 26.4244 28 22.0137V22.0137C28 19.6151 26.9744 17.4638 25.3512 16V16C20.8481 18.7886 17.2219 22.9286 15 27.8771" fill="url(#paint4_linear_1_385)"/>
</g>
<path fill-rule="evenodd" clip-rule="evenodd" d="M18.0104 22.4236C18.0452 22.3795 18.08 22.3354 18.1151 22.2915L18.1298 22.2731C18.2817 22.0833 18.436 21.8957 18.5928 21.7102L18.6119 21.6876C18.7675 21.5039 18.9255 21.3223 19.0859 21.1429L19.1093 21.1167C19.27 20.9372 19.4332 20.76 19.5986 20.585L19.6187 20.5638C19.7854 20.3877 19.9545 20.2139 20.1258 20.0424L20.1437 20.0245C20.317 19.8514 20.4926 19.6807 20.6705 19.5123L20.6823 19.5011C20.8636 19.3297 21.0472 19.1608 21.2332 18.9946L21.2345 18.9933C22.4227 17.9308 23.705 16.9722 25.0672 16.132L25.0684 16.1313C25.1399 16.0872 25.2116 16.0434 25.2835 16C26.9483 17.4639 28 19.6151 28 22.0137C28 26.4244 24.4447 30 20.059 30C19.8954 30 19.7331 29.995 19.572 29.9852C18.5645 27.8734 18 25.5074 18 23.0088C18 22.8129 18.0036 22.6178 18.0104 22.4236" fill="#111A2A"/>
<mask id="mask5_1_385" style="mask-type:alpha" maskUnits="userSpaceOnUse" x="13" y="43" width="18" height="22">
<path fill-rule="evenodd" clip-rule="evenodd" d="M13 43.4236C14.4219 53.3518 20.8894 61.5386 29.5655 65V65C30.4844 62.989 31 60.7353 31 58.3544V58.3544C31 49.8745 24.4691 43 16.413 43V43C15.2375 43 14.0948 43.147 13 43.4236" fill="white"/>
</mask>
<g mask="url(#mask5_1_385)">
<path fill-rule="evenodd" clip-rule="evenodd" d="M13 43.4236C14.4219 53.3518 20.8894 61.5386 29.5655 65V65C30.4844 62.989 31 60.7353 31 58.3544V58.3544C31 49.8745 24.4691 43 16.413 43V43C15.2375 43 14.0948 43.147 13 43.4236" fill="url(#paint5_linear_1_385)"/>
</g>
<mask id="mask6_1_385" style="mask-type:alpha" maskUnits="userSpaceOnUse" x="25" y="45" width="35" height="21">
<path fill-rule="evenodd" clip-rule="evenodd" d="M25 62.5112C28.9624 64.7315 33.5374 66 38.4112 66V66C47.1884 66 54.9984 61.8902 60 55.5034V55.5034C57.0661 49.2974 50.7184 45 43.3593 45V45C33.4607 45 25.3915 52.7746 25 62.5112" fill="white"/>
</mask>
<g mask="url(#mask6_1_385)">
<path fill-rule="evenodd" clip-rule="evenodd" d="M25 62.5112C28.9624 64.7315 33.5374 66 38.4112 66V66C47.1884 66 54.9984 61.8902 60 55.5034V55.5034C57.0661 49.2974 50.7184 45 43.3593 45V45C33.4607 45 25.3915 52.7746 25 62.5112" fill="url(#paint6_linear_1_385)"/>
</g>
<path fill-rule="evenodd" clip-rule="evenodd" d="M26 62.3167C26.1603 58.3906 27.6259 54.7938 29.9823 51.9292C30.7336 53.6815 31.1492 55.606 31.1492 57.6255C31.1492 59.9092 30.6175 62.071 29.6698 63.9999C28.3977 63.5278 27.1716 62.9639 26 62.3167" fill="#6414EF"/>
<path fill-rule="evenodd" clip-rule="evenodd" d="M66.0002 42C65.2273 49.5587 61.1935 56.1762 55.2965 60.4843C54.274 58.6924 53.6909 56.6278 53.6909 54.4295C53.6909 47.6899 59.167 42.2031 66.0002 42" fill="#7D17F4"/>
<mask id="mask7_1_385" style="mask-type:alpha" maskUnits="userSpaceOnUse" x="59" y="42" width="7" height="2">
<path fill-rule="evenodd" clip-rule="evenodd" d="M59 43.5934C60.5998 43.859 62.2591 44 63.9608 44V44C64.5265 44 65.0876 43.9842 65.6433 43.9534V43.9534C65.7574 43.4714 65.8531 42.9844 65.9298 42.4927V42.4927L65.9352 42.4571C65.9468 42.3815 65.9581 42.3057 65.9687 42.2299V42.2299C65.9766 42.1753 65.984 42.1208 65.9912 42.0661V42.0661L66 42C63.4459 42.0605 61.0578 42.6344 59 43.5934" fill="white"/>
</mask>
<g mask="url(#mask7_1_385)">
<path fill-rule="evenodd" clip-rule="evenodd" d="M59 43.5934C60.5998 43.859 62.2591 44 63.9608 44V44C64.5265 44 65.0876 43.9842 65.6433 43.9534V43.9534C65.7574 43.4714 65.8531 42.9844 65.9298 42.4927V42.4927L65.9352 42.4571C65.9468 42.3815 65.9581 42.3057 65.9687 42.2299V42.2299C65.9766 42.1753 65.984 42.1208 65.9912 42.0661V42.0661L66 42C63.4459 42.0605 61.0578 42.6344 59 43.5934" fill="url(#paint7_linear_1_385)"/>
</g>
<path fill-rule="evenodd" clip-rule="evenodd" d="M46.4708 14.206C48.4994 16.8587 49.7029 20.1606 49.7029 23.7406C49.7029 27.7475 48.1951 31.4065 45.7102 34.1965C44.0026 31.2235 43.0269 27.7873 43.0269 24.1258C43.0269 20.4415 44.0145 16.9854 45.7418 14C45.9864 14.065 46.229 14.1344 46.4708 14.206" fill="#111A2A"/>
<path fill-rule="evenodd" clip-rule="evenodd" d="M59.9999 55.9872C58.5094 57.8787 56.7654 59.5659 54.8189 61C53.7964 59.1928 53.2134 57.1108 53.2134 54.8941C53.2134 52.8937 53.6882 51.0031 54.532 49.325C56.8588 51.0669 58.7459 53.351 59.9999 55.9872" fill="#111A2A"/>
<path fill-rule="evenodd" clip-rule="evenodd" d="M28.3407 45.7061C28.3407 46.5341 28.0382 47.2328 27.4331 47.8073C26.8341 48.4213 26.0864 48.7315 25.1962 48.7315H25.1448C24.2543 48.7315 23.5069 48.4213 22.9019 47.8073C22.3025 47.2328 22 46.5341 22 45.7061V28.6415C22 27.8191 22.3025 27.1205 22.9019 26.546C23.5069 25.9319 24.2543 25.6222 25.1448 25.6222H25.1962C26.0864 25.6222 26.8341 25.9319 27.4331 26.546C28.0382 27.1205 28.3407 27.8191 28.3407 28.6415V45.7061ZM42.865 44.3031C44.4917 44.3031 45.8955 43.6328 47.0656 42.2918C48.2695 40.9061 48.8689 39.2217 48.8689 37.2443C48.8689 35.2613 48.2695 33.5769 47.0656 32.1908C45.8955 30.8502 44.4917 30.1795 42.865 30.1795C41.2272 30.1795 39.829 30.8502 38.6703 32.1908C37.455 33.5769 36.85 35.2613 36.85 37.2443C36.85 39.2217 37.455 40.9061 38.6703 42.2918C39.829 43.6328 41.2272 44.3031 42.865 44.3031V44.3031ZM44.3203 49.2892C44.2118 49.3004 43.9951 49.3172 43.6869 49.34C43.4414 49.3624 43.259 49.3735 43.1333 49.3735H42.58C42.4599 49.3735 42.2832 49.3624 42.049 49.34C38.2712 49.1312 35.3261 47.9031 33.2202 45.661C31.2457 43.5483 30.2586 40.8442 30.2586 37.5541C30.2586 33.9766 31.3824 31.0809 33.6197 28.8555C35.7601 26.7205 38.5619 25.498 42.032 25.177C42.3858 25.1319 42.6653 25.1091 42.865 25.1091C43.0536 25.1091 43.3331 25.1319 43.7039 25.177C47.157 25.498 49.9532 26.7205 52.0935 28.8555C54.3365 31.0809 55.4547 33.9766 55.4547 37.5541C55.4547 40.8442 54.4675 43.5483 52.4988 45.661C51.831 46.3653 51.169 46.9118 50.5239 47.3118L52.0133 49.5707C52.4699 50.2526 52.6184 50.9903 52.4643 51.7849C52.2876 52.5961 51.848 53.2213 51.1576 53.6665L51.1289 53.6944C50.3584 54.1903 49.5423 54.354 48.6866 54.1735C47.8133 53.9875 47.1456 53.5423 46.6773 52.8384L44.3203 49.2892Z" fill="white"/>
<defs>
<linearGradient id="paint0_linear_1_385" x1="15.9697" y1="55.7121" x2="55.1442" y2="61.2746" gradientUnits="userSpaceOnUse">
<stop stop-color="#4B5DFD"/>
<stop offset="1" stop-color="#21BCFF"/>
</linearGradient>
<linearGradient id="paint1_linear_1_385" x1="15.7658" y1="69.8391" x2="55.7955" y2="72.9533" gradientUnits="userSpaceOnUse">
<stop stop-color="#4B5DFD"/>
<stop offset="1" stop-color="#21BCFF"/>
</linearGradient>
<linearGradient id="paint2_linear_1_385" x1="-34.586" y1="7.57557" x2="5.21777" y2="56.8798" gradientUnits="userSpaceOnUse">
<stop stop-color="#66F9F2"/>
<stop offset="1" stop-color="#50D1F9"/>
</linearGradient>
<linearGradient id="paint3_linear_1_385" x1="61.3833" y1="8.08235" x2="41.7805" y2="15.358" gradientUnits="userSpaceOnUse">
<stop stop-color="#66F9F2"/>
<stop offset="1" stop-color="#50D1F9"/>
</linearGradient>
<linearGradient id="paint4_linear_1_385" x1="26.7039" y1="31.0148" x2="25.3904" y2="22.2276" gradientUnits="userSpaceOnUse">
<stop stop-color="#49AEFB"/>
<stop offset="1" stop-color="#59C3FD"/>
</linearGradient>
<linearGradient id="paint5_linear_1_385" x1="19.2231" y1="76.5642" x2="43.5128" y2="62.1148" gradientUnits="userSpaceOnUse">
<stop stop-color="#3B64F4"/>
<stop offset="1" stop-color="#6D0EED"/>
</linearGradient>
<linearGradient id="paint6_linear_1_385" x1="57.9011" y1="65.5506" x2="57.9011" y2="47.0693" gradientUnits="userSpaceOnUse">
<stop stop-color="#3B64F4"/>
<stop offset="1" stop-color="#6D0EED"/>
</linearGradient>
<linearGradient id="paint7_linear_1_385" x1="72.8105" y1="42.9419" x2="71.4772" y2="37.268" gradientUnits="userSpaceOnUse">
<stop stop-color="#4B5DFD"/>
<stop offset="1" stop-color="#21BCFF"/>
</linearGradient>
</defs>
</svg>
