<svg id="IQ2" xmlns="http://www.w3.org/2000/svg" xmlns:xlink="http://www.w3.org/1999/xlink" width="54" height="54" viewBox="0 0 54 54">
  <defs>
    <clipPath id="clip-path">
      <path id="Clip_2" data-name="Clip 2" d="M0,27A27,27,0,0,0,27,54h0A27,27,0,0,0,54,27h0A27,27,0,0,0,27,0h0A27,27,0,0,0,0,27" fill="none"/>
    </clipPath>
    <linearGradient id="linear-gradient" x1="0.125" y1="0.447" x2="0.85" y2="0.55" gradientUnits="objectBoundingBox">
      <stop offset="0" stop-color="#4b5dfd"/>
      <stop offset="1" stop-color="#21bcff"/>
    </linearGradient>
    <clipPath id="clip-path-2">
      <path id="Clip_5" data-name="Clip 5" d="M5.181,0A26.844,26.844,0,0,0,0,15.881H0A27.291,27.291,0,0,0,25.907,43h0A25.92,25.92,0,0,0,32,26.292h0A26.514,26.514,0,0,0,5.269,0H5.181Z" fill="none"/>
    </clipPath>
    <linearGradient id="linear-gradient-2" x1="0.183" y1="0.467" x2="1.428" y2="0.597" xlink:href="#linear-gradient"/>
    <clipPath id="clip-path-3">
      <path id="Clip_8" data-name="Clip 8" d="M.01,10.27q-.01.292-.01.586H0A16.073,16.073,0,0,0,16,27h0A16.073,16.073,0,0,0,32,10.856h0a16.164,16.164,0,0,0-3.224-9.718h0A26.629,26.629,0,0,0,21.058,0h0A26.717,26.717,0,0,0,.01,10.27" fill="none"/>
    </clipPath>
    <linearGradient id="linear-gradient-3" x1="-0.856" y1="-0.917" x2="0.651" y2="0.657" gradientUnits="objectBoundingBox">
      <stop offset="0" stop-color="#66f9f2"/>
      <stop offset="1" stop-color="#50d1f9"/>
    </linearGradient>
    <clipPath id="clip-path-4">
      <path id="Clip_11" data-name="Clip 11" d="M0,10.266C0,21.717,9.014,31,20.134,31h0q.721,0,1.431-.052h0A27.888,27.888,0,0,0,22,26.033h0A26.848,26.848,0,0,0,2.639,0h0A21.111,21.111,0,0,0,0,10.266" fill="none"/>
    </clipPath>
    <linearGradient id="linear-gradient-4" x1="0.998" y1="0.239" x2="0.202" y2="0.656" xlink:href="#linear-gradient-3"/>
    <clipPath id="clip-path-5">
      <path id="Clip_14" data-name="Clip 14" d="M0,11.877A7.588,7.588,0,0,0,5.257,14h0A7.868,7.868,0,0,0,13,6.014h0A8.074,8.074,0,0,0,10.351,0h0A26.947,26.947,0,0,0,0,11.877" fill="none"/>
    </clipPath>
    <linearGradient id="linear-gradient-5" x1="0.586" y1="1.116" x2="0.498" y2="0.487" gradientUnits="objectBoundingBox">
      <stop offset="0" stop-color="#49aefb"/>
      <stop offset="1" stop-color="#59c3fd"/>
    </linearGradient>
    <clipPath id="clip-path-6">
      <path id="Clip_19" data-name="Clip 19" d="M0,.424A27.258,27.258,0,0,0,16.566,22h0A15.96,15.96,0,0,0,18,15.354h0C18,6.874,11.469,0,3.413,0h0A13.916,13.916,0,0,0,0,.424" fill="none"/>
    </clipPath>
    <linearGradient id="linear-gradient-6" x1="-0.089" y1="0.928" x2="1.106" y2="0.059" gradientUnits="objectBoundingBox">
      <stop offset="0" stop-color="#3b64f4"/>
      <stop offset="1" stop-color="#6d0eed"/>
    </linearGradient>
    <clipPath id="clip-path-7">
      <path id="Clip_22" data-name="Clip 22" d="M0,17.511A27.352,27.352,0,0,0,13.411,21h0A27.354,27.354,0,0,0,35,10.5h0A18.385,18.385,0,0,0,18.359,0h0A18.32,18.32,0,0,0,0,17.511" fill="none"/>
    </clipPath>
    <linearGradient id="linear-gradient-7" x1="0.5" y1="0.979" x2="0.5" y2="0.099" xlink:href="#linear-gradient-6"/>
    <clipPath id="clip-path-8">
      <path id="Clip_30" data-name="Clip 30" d="M0,1.593A30.3,30.3,0,0,0,4.961,2h0q.849,0,1.683-.047h0Q6.814,1.23,6.93.493h0L6.935.457Q6.953.344,6.969.23h0c.008-.055.015-.109.022-.164h0L7,0A17.588,17.588,0,0,0,0,1.593" fill="none"/>
    </clipPath>
    <linearGradient id="linear-gradient-8" x1="1.08" y1="1.205" x2="-0.389" y2="-0.58" xlink:href="#linear-gradient"/>
  </defs>
  <g id="Group_3" data-name="Group 3">
    <path id="Clip_2-2" data-name="Clip 2" d="M0,27A27,27,0,0,0,27,54h0A27,27,0,0,0,54,27h0A27,27,0,0,0,27,0h0A27,27,0,0,0,0,27" fill="none"/>
    <g id="Group_3-2" data-name="Group 3" clip-path="url(#clip-path)">
      <path id="Fill_1" data-name="Fill 1" d="M0,27A27,27,0,0,0,27,54h0A27,27,0,0,0,54,27h0A27,27,0,0,0,27,0h0A27,27,0,0,0,0,27" fill="url(#linear-gradient)"/>
    </g>
  </g>
  <g id="Group_6" data-name="Group 6" transform="translate(0 11)">
    <path id="Clip_5-2" data-name="Clip 5" d="M5.181,0A26.844,26.844,0,0,0,0,15.881H0A27.291,27.291,0,0,0,25.907,43h0A25.92,25.92,0,0,0,32,26.292h0A26.514,26.514,0,0,0,5.269,0H5.181Z" fill="none"/>
    <g id="Group_6-2" data-name="Group 6" clip-path="url(#clip-path-2)">
      <path id="Fill_4" data-name="Fill 4" d="M5.181,0A26.844,26.844,0,0,0,0,15.881H0A27.291,27.291,0,0,0,25.907,43h0A25.92,25.92,0,0,0,32,26.292h0A26.514,26.514,0,0,0,5.269,0H5.181Z" fill="url(#linear-gradient-2)"/>
    </g>
  </g>
  <g id="Group_9" data-name="Group 9" transform="translate(6)">
    <path id="Clip_8-2" data-name="Clip 8" d="M.01,10.27q-.01.292-.01.586H0A16.073,16.073,0,0,0,16,27h0A16.073,16.073,0,0,0,32,10.856h0a16.164,16.164,0,0,0-3.224-9.718h0A26.629,26.629,0,0,0,21.058,0h0A26.717,26.717,0,0,0,.01,10.27" fill="none"/>
    <g id="Group_9-2" data-name="Group 9" clip-path="url(#clip-path-3)">
      <path id="Fill_7" data-name="Fill 7" d="M.01,10.27q-.01.292-.01.586H0A16.073,16.073,0,0,0,16,27h0A16.073,16.073,0,0,0,32,10.856h0a16.164,16.164,0,0,0-3.224-9.718h0A26.629,26.629,0,0,0,21.058,0h0A26.717,26.717,0,0,0,.01,10.27" fill="url(#linear-gradient-3)"/>
    </g>
  </g>
  <g id="Group_12" data-name="Group 12" transform="translate(32 1)">
    <path id="Clip_11-2" data-name="Clip 11" d="M0,10.266C0,21.717,9.014,31,20.134,31h0q.721,0,1.431-.052h0A27.888,27.888,0,0,0,22,26.033h0A26.848,26.848,0,0,0,2.639,0h0A21.111,21.111,0,0,0,0,10.266" fill="none"/>
    <g id="Group_12-2" data-name="Group 12" clip-path="url(#clip-path-4)">
      <path id="Fill_10" data-name="Fill 10" d="M0,10.266C0,21.717,9.014,31,20.134,31h0q.721,0,1.431-.052h0A27.888,27.888,0,0,0,22,26.033h0A26.848,26.848,0,0,0,2.639,0h0A21.111,21.111,0,0,0,0,10.266" fill="url(#linear-gradient-4)"/>
    </g>
  </g>
  <g id="Group_15" data-name="Group 15" transform="translate(3 4)">
    <path id="Clip_14-2" data-name="Clip 14" d="M0,11.877A7.588,7.588,0,0,0,5.257,14h0A7.868,7.868,0,0,0,13,6.014h0A8.074,8.074,0,0,0,10.351,0h0A26.947,26.947,0,0,0,0,11.877" fill="none"/>
    <g id="Group_15-2" data-name="Group 15" clip-path="url(#clip-path-5)">
      <path id="Fill_13" data-name="Fill 13" d="M0,11.877A7.588,7.588,0,0,0,5.257,14h0A7.868,7.868,0,0,0,13,6.014h0A8.074,8.074,0,0,0,10.351,0h0A26.947,26.947,0,0,0,0,11.877" fill="url(#linear-gradient-5)"/>
    </g>
  </g>
  <path id="Fill_16" data-name="Fill 16" d="M.01,6.424l.1-.132L.13,6.273q.228-.285.463-.563l.019-.023q.233-.276.474-.545l.023-.026q.241-.269.489-.532l.02-.021q.25-.264.507-.521l.018-.018q.26-.26.527-.512L2.682,3.5q.272-.257.551-.507h0A27.068,27.068,0,0,1,7.067.132h0L7.284,0A7.986,7.986,0,0,1,10,6.014,7.964,7.964,0,0,1,2.059,14q-.245,0-.487-.015A16.16,16.16,0,0,1,0,7.009q0-.294.01-.585" transform="translate(6 4)" fill="#111a2a"/>
  <g id="Group_20" data-name="Group 20" transform="translate(1 31)">
    <path id="Clip_19-2" data-name="Clip 19" d="M0,.424A27.258,27.258,0,0,0,16.566,22h0A15.96,15.96,0,0,0,18,15.354h0C18,6.874,11.469,0,3.413,0h0A13.916,13.916,0,0,0,0,.424" fill="none"/>
    <g id="Group_20-2" data-name="Group 20" clip-path="url(#clip-path-6)">
      <path id="Fill_18" data-name="Fill 18" d="M0,.424A27.258,27.258,0,0,0,16.566,22h0A15.96,15.96,0,0,0,18,15.354h0C18,6.874,11.469,0,3.413,0h0A13.916,13.916,0,0,0,0,.424" fill="url(#linear-gradient-6)"/>
    </g>
  </g>
  <g id="Group_23" data-name="Group 23" transform="translate(13 33)">
    <path id="Clip_22-2" data-name="Clip 22" d="M0,17.511A27.352,27.352,0,0,0,13.411,21h0A27.354,27.354,0,0,0,35,10.5h0A18.385,18.385,0,0,0,18.359,0h0A18.32,18.32,0,0,0,0,17.511" fill="none"/>
    <g id="Group_23-2" data-name="Group 23" clip-path="url(#clip-path-7)">
      <path id="Fill_21" data-name="Fill 21" d="M0,17.511A27.352,27.352,0,0,0,13.411,21h0A27.354,27.354,0,0,0,35,10.5h0A18.385,18.385,0,0,0,18.359,0h0A18.32,18.32,0,0,0,0,17.511" fill="url(#linear-gradient-7)"/>
    </g>
  </g>
  <g id="Group_28" data-name="Group 28" transform="translate(14 30)">
    <path id="Fill_24" data-name="Fill 24" d="M0,10.388A17.425,17.425,0,0,1,3.982,0,14.417,14.417,0,0,1,5.149,5.7,14.411,14.411,0,0,1,3.67,12.071,27.065,27.065,0,0,1,0,10.388" transform="translate(0 9.929)" fill="#6414ef"/>
    <path id="Fill_26" data-name="Fill 26" d="M12.309,0a26.218,26.218,0,0,1-10.7,18.484A12.174,12.174,0,0,1,0,12.43,12.561,12.561,0,0,1,12.309,0" transform="translate(27.691)" fill="#7d17f4"/>
  </g>
  <g id="Group_31" data-name="Group 31" transform="translate(47 30)">
    <path id="Clip_30-2" data-name="Clip 30" d="M0,1.593A30.3,30.3,0,0,0,4.961,2h0q.849,0,1.683-.047h0Q6.814,1.23,6.93.493h0L6.935.457Q6.953.344,6.969.23h0c.008-.055.015-.109.022-.164h0L7,0A17.588,17.588,0,0,0,0,1.593" fill="none"/>
    <g id="Group_31-2" data-name="Group 31" clip-path="url(#clip-path-8)">
      <path id="Fill_29" data-name="Fill 29" d="M0,1.593A30.3,30.3,0,0,0,4.961,2h0q.849,0,1.683-.047h0Q6.814,1.23,6.93.493h0L6.935.457Q6.953.344,6.969.23h0c.008-.055.015-.109.022-.164h0L7,0A17.588,17.588,0,0,0,0,1.593" fill="url(#linear-gradient-8)"/>
    </g>
  </g>
  <g id="Group_38" data-name="Group 38" transform="translate(10 2)">
    <path id="Fill_32" data-name="Fill 32" d="M3.444.206A15.638,15.638,0,0,1,6.676,9.741,15.666,15.666,0,0,1,2.683,20.2,20.24,20.24,0,0,1,2.715,0c.245.065.487.134.729.206" transform="translate(21.027)" fill="#111a2a"/>
    <path id="Fill_34" data-name="Fill 34" d="M6.787,6.662a26.942,26.942,0,0,1-5.181,5.013A12.416,12.416,0,0,1,1.319,0,17.993,17.993,0,0,1,6.787,6.662" transform="translate(31.213 35.325)" fill="#111a2a"/>
    <path id="Fill_36" data-name="Fill 36" d="M27.354,29.135a3.247,3.247,0,0,1-.667-.071,3.1,3.1,0,0,1-2.01-1.336L22.32,24.18c-.109.011-.328.028-.633.05-.241.022-.428.033-.554.033H20.58c-.123,0-.3-.011-.531-.033a12.582,12.582,0,0,1-8.829-3.679,11.448,11.448,0,0,1-2.962-8.106,11.781,11.781,0,0,1,3.361-8.7A13.259,13.259,0,0,1,20.032.067,7.048,7.048,0,0,1,20.865,0,7.641,7.641,0,0,1,21.7.067a13.235,13.235,0,0,1,8.39,3.679,10.936,10.936,0,0,1,2.522,3.842,13.442,13.442,0,0,1,.84,4.857A11.469,11.469,0,0,1,30.5,20.551,10.13,10.13,0,0,1,28.524,22.2l1.49,2.258a2.894,2.894,0,0,1-.856,4.1l-.029.028A3.249,3.249,0,0,1,27.354,29.135ZM20.865,5.071a5.377,5.377,0,0,0-4.194,2.011,7.427,7.427,0,0,0-1.821,5.054,7.419,7.419,0,0,0,1.821,5.047,5.386,5.386,0,0,0,8.4,0,7.466,7.466,0,0,0,1.8-5.047,7.474,7.474,0,0,0-1.8-5.054A5.418,5.418,0,0,0,20.865,5.071ZM3.2,23.622H3.145A3.038,3.038,0,0,1,.9,22.7,2.812,2.812,0,0,1,0,20.6V3.532a2.81,2.81,0,0,1,.9-2.1A3.038,3.038,0,0,1,3.145.513H3.2a3.014,3.014,0,0,1,2.237.923,2.8,2.8,0,0,1,.907,2.1V20.6a2.8,2.8,0,0,1-.907,2.1A3.015,3.015,0,0,1,3.2,23.622Z" transform="translate(0 11.109)" fill="#fff"/>
  </g>
</svg>
