<svg id="Menu" xmlns="http://www.w3.org/2000/svg" width="52" height="45" viewBox="0 0 52 45">
  <g id="Menu-2" data-name="Menu" transform="translate(9.208 11.719)">
    <path id="Path" d="M23.833,1.875C23.833.84,23.317,0,22.68,0H1.153C.516,0,0,.84,0,1.875S.516,3.75,1.153,3.75H22.68C23.317,3.75,23.833,2.911,23.833,1.875Z" transform="translate(9.75 8.438)" fill="#788bff"/>
    <path id="Path-2" data-name="Path" d="M33.583,1.406A1.528,1.528,0,0,0,31.958,0H1.625A1.528,1.528,0,0,0,0,1.406,1.528,1.528,0,0,0,1.625,2.813H31.958A1.528,1.528,0,0,0,33.583,1.406Z" fill="#788bff"/>
    <path id="Path-3" data-name="Path" d="M33.583,1.406A1.528,1.528,0,0,0,31.958,0H1.625A1.528,1.528,0,0,0,0,1.406,1.528,1.528,0,0,0,1.625,2.813H31.958A1.528,1.528,0,0,0,33.583,1.406Z" transform="translate(0 18.75)" fill="#788bff"/>
  </g>
</svg>
