<svg id="Server" xmlns="http://www.w3.org/2000/svg" width="24" height="24" viewBox="0 0 24 24">
  <g id="Server-2" data-name="Server" transform="translate(3 3)">
    <path id="Path" d="M0,1A1,1,0,1,1,1,2,1,1,0,0,1,0,1Z" transform="translate(3 3.5)"/>
    <path id="Path-2" data-name="Path" d="M0,1A1,1,0,1,1,1,2,1,1,0,0,1,0,1Z" transform="translate(6 3.5)"/>
    <path id="Path-3" data-name="Path" d="M1,0A1,1,0,1,0,2,1,1,1,0,0,0,1,0Z" transform="translate(3 10.5)"/>
    <path id="Path-4" data-name="Path" d="M1,0A1,1,0,1,0,2,1,1,1,0,0,0,1,0Z" transform="translate(6 10.5)"/>
    <path id="Shape" d="M15.8,18.5H1.8a.75.75,0,0,1,0-1.5h6.25V15.5H2.75A2.753,2.753,0,0,1,0,12.75v-3a2.724,2.724,0,0,1,.862-2A2.725,2.725,0,0,1,0,5.75v-3A2.754,2.754,0,0,1,2.75,0h12A2.753,2.753,0,0,1,17.5,2.75v3a2.724,2.724,0,0,1-.862,2,2.725,2.725,0,0,1,.862,2v3a2.753,2.753,0,0,1-2.75,2.75h-5.2V17H15.8a.75.75,0,1,1,0,1.5ZM2.75,8.5A1.252,1.252,0,0,0,1.5,9.75v3A1.252,1.252,0,0,0,2.75,14h12A1.252,1.252,0,0,0,16,12.75v-3A1.252,1.252,0,0,0,14.75,8.5Zm0-7A1.252,1.252,0,0,0,1.5,2.75v3A1.252,1.252,0,0,0,2.75,7h12A1.252,1.252,0,0,0,16,5.75v-3A1.252,1.252,0,0,0,14.75,1.5Z" transform="translate(0.197 0.25)"/>
  </g>
</svg>
