<svg xmlns="http://www.w3.org/2000/svg" width="19.652" height="18.75" viewBox="0 0 19.652 18.75">
  <g id="Group_3" data-name="Group 3" transform="translate(-20.25 -13.75)">
    <path id="Shape" d="M10.75,14.74a40.967,40.967,0,0,1-4.627-.263l-2.458-.282A.749.749,0,0,1,3.2,12.937L5.9,10.06l-.237-.523,0-.006L2.974,3.587,1.81,1.5H.75A.75.75,0,0,1,.75,0h1.5a.75.75,0,0,1,.655.384L4.085,2.5H17.9a1.75,1.75,0,0,1,1.463,2.71L18.283,6.852a.7.7,0,0,1-.054.073l-.578.685a9.352,9.352,0,0,1-6.367,3.268c-.4.032-.807.048-1.209.048A15.292,15.292,0,0,1,8.1,10.8l-.753-.1a.716.716,0,0,1-.053.064L5.318,12.875l.976.112a39.4,39.4,0,0,0,4.456.254,39.4,39.4,0,0,0,4.456-.254l2.459-.281a.757.757,0,0,1,.087-.005.75.75,0,0,1,.083,1.495l-2.458.282A40.967,40.967,0,0,1,10.75,14.74ZM4.807,4l2.22,4.913a.485.485,0,0,0,.379.282L8.3,9.31a13.82,13.82,0,0,0,1.783.116c.361,0,.727-.014,1.087-.043a7.837,7.837,0,0,0,5.338-2.741l.549-.65,1.053-1.6A.251.251,0,0,0,17.9,4Z" transform="translate(20.25 13.75)" fill="#fffbfa"/>
    <path id="Path" d="M1.5,0A1.5,1.5,0,1,0,3,1.5,1.5,1.5,0,0,0,1.5,0Z" transform="translate(24 29.5)" fill="#fffbfa"/>
    <path id="Path-2" data-name="Path" d="M0,1.5A1.5,1.5,0,1,1,1.5,3,1.5,1.5,0,0,1,0,1.5Z" transform="translate(35 29.5)" fill="#fffbfa"/>
  </g>
</svg>
